<svg xmlns="http://www.w3.org/2000/svg" viewBox="0 0 64 64" width="64" height="64">
  <defs>
    <radialGradient id="bg" cx="0.5" cy="0.4" r="0.85">
      <stop offset="0" stop-color="#f5443a"/><stop offset="1" stop-color="#7f1010"/>
    </radialGradient>
  </defs>
  <!-- Full-tile red alert: at taskbar scale the whole icon reads as red,
       unmistakable against the calm dark/amber idle tile (the old variant
       only recolored one small node, invisible at ~22px). -->
  <rect x="3" y="3" width="58" height="58" rx="15" fill="url(#bg)"/>
  <g fill="none" stroke="#fff7ed" stroke-width="2.8" stroke-linejoin="round" stroke-linecap="round">
    <line x1="32" y1="32" x2="32.00" y2="8.00"/>
    <line x1="32" y1="32" x2="52.78" y2="20.00"/>
    <line x1="32" y1="32" x2="52.78" y2="44.00"/>
    <line x1="32" y1="32" x2="32.00" y2="56.00"/>
    <line x1="32" y1="32" x2="11.22" y2="44.00"/>
    <line x1="32" y1="32" x2="11.22" y2="20.00"/>
    <polygon points="32.00,17.00 44.99,24.50 44.99,39.50 32.00,47.00 19.01,39.50 19.01,24.50"/>
    <polygon points="32.00,8.00 52.78,20.00 52.78,44.00 32.00,56.00 11.22,44.00 11.22,20.00"/>
  </g>
  <circle cx="44.99" cy="24.50" r="6" fill="#ffffff"/>
</svg>
